<?xml version="1.0" encoding="UTF-8" standalone="no"?>
<!-- Created with Inkscape (http://www.inkscape.org/) -->
<svg
   xmlns:dc="http://purl.org/dc/elements/1.1/"
   xmlns:cc="http://creativecommons.org/ns#"
   xmlns:rdf="http://www.w3.org/1999/02/22-rdf-syntax-ns#"
   xmlns:svg="http://www.w3.org/2000/svg"
   xmlns="http://www.w3.org/2000/svg"
   xmlns:sodipodi="http://sodipodi.sourceforge.net/DTD/sodipodi-0.dtd"
   xmlns:inkscape="http://www.inkscape.org/namespaces/inkscape"
   id="svg2403"
   sodipodi:version="0.32"
   inkscape:version="0.46"
   width="601"
   height="600"
   version="1.0"
   sodipodi:docname="penny_tails.svg"
   inkscape:label="Source Image"
   inkscape:output_extension="org.inkscape.output.svg.inkscape"
   style="display:inline"
   inkscape:export-filename="/home/elliot/penny_tails.png"
   inkscape:export-xdpi="46.950001"
   inkscape:export-ydpi="46.950001">
  <metadata
     id="metadata2408">
    <rdf:RDF>
      <cc:Work
         rdf:about="">
        <dc:format>image/svg+xml</dc:format>
        <dc:type
           rdf:resource="http://purl.org/dc/dcmitype/StillImage" />
      </cc:Work>
    </rdf:RDF>
  </metadata>
  <defs
     id="defs2406">
    <inkscape:perspective
       sodipodi:type="inkscape:persp3d"
       inkscape:vp_x="0 : 300 : 1"
       inkscape:vp_y="0 : 1000 : 0"
       inkscape:vp_z="601 : 300 : 1"
       inkscape:persp3d-origin="300.5 : 200 : 1"
       id="perspective3319" />
  </defs>
  <sodipodi:namedview
     inkscape:window-height="1023"
     inkscape:window-width="1680"
     inkscape:pageshadow="2"
     inkscape:pageopacity="0.0"
     guidetolerance="10.0"
     gridtolerance="10.0"
     objecttolerance="10.0"
     borderopacity="1.0"
     bordercolor="#666666"
     pagecolor="#ffffff"
     id="base"
     showgrid="false"
     inkscape:zoom="1.2020815"
     inkscape:cx="197.31447"
     inkscape:cy="321.68044"
     inkscape:window-x="1680"
     inkscape:window-y="0"
     inkscape:current-layer="svg2403" />
  <g
     inkscape:groupmode="layer"
     id="layer3"
     inkscape:label="Source Image"
     sodipodi:insensitive="true"
     style="display:none" />
  <g
     inkscape:groupmode="layer"
     id="layer4"
     inkscape:label="Outer layer"
     style="display:inline">
    <path
       style="opacity:0.9962963;fill:#bd9270;fill-opacity:1;stroke:#000000;stroke-width:2.24900007;stroke-linejoin:miter;stroke-miterlimit:4;stroke-dasharray:none;stroke-opacity:1"
       d="M 299.40625,1.1875 C 133.48155,1.1875 -1.1875,134.78037 -1.1875,299.40625 C -1.1875,464.03213 133.48155,597.65622 299.40625,597.65625 C 465.33095,597.65625 600,464.03213 600,299.40625 C 600,134.78037 465.33095,1.1875 299.40625,1.1875 z"
       id="path2490" />
  </g>
  <g
     inkscape:groupmode="layer"
     id="layer7"
     inkscape:label="Inner Layer"
     style="display:inline">
    <path
       style="opacity:1;fill:#f8ece0;fill-opacity:1;stroke:#000000;stroke-width:2.24900007;stroke-linejoin:miter;stroke-miterlimit:4;stroke-dasharray:none;stroke-opacity:1;display:inline"
       d="M 300.59375,17.6875 C 455.44867,17.6875 581.125,144.43999 581.125,300.59375 C 581.12502,456.74751 455.44869,583.46875 300.59375,583.46875 C 145.7388,583.46876 20.0625,456.74751 20.0625,300.59375 C 20.0625,144.43999 145.73881,17.6875 300.59375,17.6875 z"
       id="path2442" />
    <text
       xml:space="preserve"
       style="font-size:40px;font-style:normal;font-weight:normal;fill:#333333;fill-opacity:1;stroke:none;stroke-width:1px;stroke-linecap:butt;stroke-linejoin:miter;stroke-opacity:1;font-family:Bitstream Vera Sans"
       x="246.51562"
       y="121.66306"
       id="text2494"><tspan
         sodipodi:role="line"
         id="tspan2496"
         x="246.51562"
         y="121.66306">TAILS</tspan></text>
  </g>
  <g
     inkscape:groupmode="layer"
     id="layer6"
     inkscape:label="Lincoln"
     style="display:inline">
    <path
       style="fill:none;fill-rule:evenodd;stroke:#000000;stroke-width:1px;stroke-linecap:butt;stroke-linejoin:miter;stroke-opacity:1"
       d="M 223.23529,285.88235 L 224.11765,287.64706"
       id="path2477" />
    <path
       style="fill:#aa855b;fill-opacity:1;fill-rule:evenodd;stroke:#000000;stroke-width:1.10842013px;stroke-linecap:butt;stroke-linejoin:miter;stroke-opacity:1"
       d="M 134.5019,156.46184 L 129.18241,168.00988 L 134.5019,179.55793 L 134.5019,196.87999 L 97.265437,196.87999 L 97.265437,214.20206 L 102.58493,219.97608 L 102.58493,335.45651 L 75.987457,358.5526 L 65.34847,358.5526 L 65.34847,381.64868 L 44.07049,404.74477 L 44.07049,410.51879 L 49.389985,416.29281 L 549.42251,416.29281 L 554.74201,410.51879 L 554.74201,404.74477 L 533.46403,381.64868 L 533.46403,358.5526 L 522.82504,358.5526 L 496.22756,335.45651 L 496.22756,219.97608 L 501.54706,214.20206 L 501.54706,196.87999 L 464.31059,196.87999 L 464.31059,179.55793 L 469.63009,168.00988 L 464.31059,156.46184 L 299.40625,156.46184 L 134.5019,156.46184 z M 121.60213,236.75683 L 135.6323,236.75683 C 137.33298,236.75683 138.691,238.2309 138.691,240.07689 L 138.691,337.29698 C 138.69102,339.14296 137.33297,340.61704 135.6323,340.61704 L 121.60213,340.61704 C 119.90145,340.61703 118.54342,339.14297 118.54342,337.29698 L 118.54342,240.07689 C 118.54342,238.2309 119.90145,236.75683 121.60213,236.75683 z M 155.77988,236.75683 L 169.7768,236.75683 C 171.47749,236.75683 172.86876,238.2309 172.86876,240.07689 L 172.86876,337.29698 C 172.86877,339.14296 171.47748,340.61704 169.7768,340.61704 L 155.77988,340.61704 C 154.07921,340.61703 152.68793,339.14297 152.68793,337.29698 L 152.68793,240.07689 C 152.68793,238.2309 154.07921,236.75683 155.77988,236.75683 z M 189.92439,236.75683 L 203.95456,236.75683 C 205.65524,236.75683 207.01327,238.2309 207.01327,240.07689 L 207.01327,337.29698 C 207.01328,339.14296 205.65523,340.61704 203.95456,340.61704 L 189.92439,340.61704 C 188.22372,340.61703 186.86568,339.14297 186.86568,337.29698 L 186.86568,240.07689 C 186.86568,238.2309 188.22372,236.75683 189.92439,236.75683 z M 224.0689,236.75683 L 238.09907,236.75683 C 239.79975,236.75683 241.15778,238.2309 241.15778,240.07689 L 241.15778,337.29698 C 241.15779,339.14296 239.79974,340.61704 238.09907,340.61704 L 224.0689,340.61704 C 222.36823,340.61703 221.01019,339.14297 221.01019,337.29698 L 221.01019,240.07689 C 221.01019,238.2309 222.36823,236.75683 224.0689,236.75683 z M 258.24666,236.75683 L 272.24358,236.75683 C 273.94426,236.75683 275.33553,238.2309 275.33553,240.07689 L 275.33553,337.29698 C 275.33554,339.14296 273.94425,340.61704 272.24358,340.61704 L 258.24666,340.61704 C 256.54598,340.61703 255.18795,339.14297 255.18795,337.29698 L 255.18795,240.07689 C 255.18795,238.2309 256.54598,236.75683 258.24666,236.75683 z M 292.39116,236.75683 L 306.42133,236.75683 C 308.12202,236.75683 309.48004,238.2309 309.48004,240.07689 L 309.48004,337.29698 C 309.48005,339.14296 308.12201,340.61704 306.42133,340.61704 L 292.39116,340.61704 C 290.69049,340.61703 289.33245,339.14297 289.33245,337.29698 L 289.33245,240.07689 C 289.33245,238.2309 290.69049,236.75683 292.39116,236.75683 z M 326.56892,236.75683 L 340.56584,236.75683 C 342.26653,236.75683 343.62455,238.2309 343.62455,240.07689 L 343.62455,337.29698 C 343.62456,339.14296 342.26652,340.61704 340.56584,340.61704 L 326.56892,340.61704 C 324.86825,340.61703 323.47696,339.14297 323.47696,337.29698 L 323.47696,240.07689 C 323.47696,238.2309 324.86825,236.75683 326.56892,236.75683 z M 360.71343,236.75683 L 374.7436,236.75683 C 376.44428,236.75683 377.80231,238.2309 377.80231,240.07689 L 377.80231,337.29698 C 377.80232,339.14296 376.44427,340.61704 374.7436,340.61704 L 360.71343,340.61704 C 359.01275,340.61703 357.65472,339.14297 357.65472,337.29698 L 357.65472,240.07689 C 357.65472,238.2309 359.01275,236.75683 360.71343,236.75683 z M 394.85794,236.75683 L 408.88811,236.75683 C 410.58879,236.75683 411.94682,238.2309 411.94682,240.07689 L 411.94682,337.29698 C 411.94683,339.14296 410.58878,340.61704 408.88811,340.61704 L 394.85794,340.61704 C 393.15726,340.61703 391.79923,339.14297 391.79923,337.29698 L 391.79923,240.07689 C 391.79923,238.2309 393.15726,236.75683 394.85794,236.75683 z M 429.03569,236.75683 L 443.03261,236.75683 C 444.7333,236.75683 446.12457,238.2309 446.12457,240.07689 L 446.12457,337.29698 C 446.12458,339.14298 444.73329,340.61704 443.03261,340.61704 L 429.03569,340.61704 C 427.33502,340.61705 425.94374,339.14297 425.94374,337.29698 L 425.94374,240.07689 C 425.94374,238.2309 427.33502,236.75683 429.03569,236.75683 z M 463.1802,236.75683 L 477.21037,236.75683 C 478.91105,236.75683 480.26908,238.2309 480.26908,240.07689 L 480.26908,337.29698 C 480.26909,339.14296 478.91104,340.61704 477.21037,340.61704 L 463.1802,340.61704 C 461.47953,340.61703 460.12149,339.14297 460.12149,337.29698 L 460.12149,240.07689 C 460.12149,238.2309 461.47953,236.75683 463.1802,236.75683 z"
       id="path3229" />
  </g>
</svg>
